<?xml version="1.0" encoding="UTF-8" standalone="no"?>
<!DOCTYPE svg PUBLIC "-//W3C//DTD SVG 1.1//EN" "http://www.w3.org/Graphics/SVG/1.1/DTD/svg11.dtd">
<svg xmlns="http://www.w3.org/2000/svg" version="1.1" viewBox="0.00 0.00 240.00 238.00">
<path fill="#75fbcf" d="
  M 133.87 13.46
  Q 133.97 13.48 135.11 14.13
  Q 171.10 34.62 207.01 55.22
  Q 208.24 55.92 213.11 61.03
  Q 216.19 64.26 217.53 67.91
  Q 220.00 74.64 220.01 81.28
  Q 220.03 114.04 220.01 146.79
  Q 220.00 163.02 219.17 166.70
  Q 217.26 175.14 211.06 181.22
  Q 207.86 184.35 197.65 190.18
  Q 165.82 208.33 134.04 226.55
  Q 130.42 228.63 121.24 230.72
  C 120.36 230.93 118.70 230.78 117.64 230.49
  Q 112.76 229.15 108.00 227.46
  Q 106.96 227.09 106.83 226.87
  Q 106.52 226.37 106.03 226.45
  Q 105.44 226.55 104.90 225.94
  Q 104.84 225.86 104.28 225.54
  L 42.26 190.10
  A 52.64 14.87 11.0 0 0 36.18 187.03
  Q 35.83 186.87 31.67 183.55
  Q 23.97 177.42 21.35 168.62
  Q 20.04 164.22 20.02 151.25
  Q 19.95 119.54 19.93 86.76
  Q 19.92 81.07 20.39 75.98
  Q 20.68 72.89 22.57 67.59
  Q 23.90 63.84 27.27 60.51
  Q 32.19 55.63 34.70 54.20
  Q 49.04 46.04 63.34 37.83
  Q 66.69 35.91 67.90 34.93
  Q 69.31 33.79 71.00 33.08
  Q 71.21 33.00 74.20 31.38
  Q 85.76 25.12 97.98 18.06
  Q 108.94 11.73 113.59 10.72
  Q 122.45 8.77 131.77 12.46
  Q 132.87 12.90 133.01 13.02
  A 2.24 1.37 58.5 0 0 133.87 13.46
  Z
  M 133.24 36.30
  C 131.76 34.60 129.20 34.25 127.90 32.92
  Q 127.54 32.55 127.03 32.50
  Q 126.44 32.44 126.00 32.06
  Q 125.01 31.21 124.86 31.15
  Q 120.63 29.37 117.54 30.33
  Q 114.77 31.20 109.16 34.80
  C 107.32 35.98 104.63 36.95 103.15 38.04
  C 100.87 39.72 98.48 40.75 96.03 42.00
  A 0.40 0.39 46.3 0 0 96.02 42.70
  Q 130.10 62.35 163.70 81.70
  Q 164.84 82.36 165.42 82.22
  C 167.15 81.80 169.01 80.07 170.44 79.30
  Q 173.16 77.85 173.21 77.82
  Q 180.26 73.59 188.32 69.14
  Q 189.75 68.36 188.34 67.55
  Q 143.70 42.04 136.12 37.73
  Q 135.98 37.65 135.09 36.97
  Q 134.22 36.32 133.71 36.45
  A 0.47 0.47 0.0 0 1 133.24 36.30
  Z
  M 50.83 68.07
  A 0.31 0.31 0.0 0 0 50.84 68.61
  L 119.83 108.43
  A 0.31 0.31 0.0 0 0 120.13 108.43
  L 144.55 94.34
  A 0.31 0.31 0.0 0 0 144.55 93.80
  L 75.57 53.97
  A 0.31 0.31 0.0 0 0 75.25 53.97
  L 50.83 68.07
  Z
  M 52.02 172.59
  Q 62.70 178.83 109.56 205.52
  A 0.29 0.29 0.0 0 0 110.00 205.27
  L 110.00 126.17
  Q 110.00 125.84 109.71 125.67
  L 40.44 85.68
  Q 40.00 85.43 40.00 85.93
  Q 39.96 123.35 39.98 156.25
  C 39.98 160.70 39.89 164.55 43.21 167.24
  Q 45.64 169.21 48.35 170.65
  Q 51.97 172.56 52.02 172.59
  Z
  M 187.97 172.58
  Q 188.02 172.55 191.64 170.64
  Q 194.35 169.21 196.78 167.24
  C 200.10 164.55 200.01 160.70 200.01 156.25
  Q 200.04 123.35 200.00 85.93
  Q 200.00 85.43 199.56 85.68
  L 130.29 125.66
  Q 130.00 125.83 130.00 126.16
  L 129.99 205.25
  A 0.29 0.29 0.0 0 0 130.43 205.50
  Q 177.29 178.82 187.97 172.58
  Z"
/>
</svg>
